<svg width="855" height="1012" viewBox="0 0 855 1012" fill="none" xmlns="http://www.w3.org/2000/svg">
<path d="M598.948 485.57C518.902 530.322 421.253 477.593 425.841 476.675C577.164 445.785 590.535 356.157 590.535 356.157C560.325 286.858 477.978 309.167 477.978 309.167C475.595 407.51 350.919 413.049 350.919 413.049C342.911 381.14 343.352 306.639 343.352 306.639C305.563 281.835 297.912 292.363 297.912 292.363C309.829 193.907 357.819 162.167 357.819 162.167C365.815 155.174 401.555 139.455 419.907 137.419L420.562 140.149C420.562 140.149 402.007 183.648 437.568 186.512C467.492 188.973 484.497 154.391 489.133 143.416C528.042 154.738 565.176 180.079 589.88 222.706C648.321 323.555 598.948 485.57 598.948 485.57Z" fill="#2E2E2E"/>
<path d="M607.6 443.133L802.098 563.965C839.816 587.393 834.965 640.715 793.601 657.799L565.986 751.846C544.818 760.591 521.609 764.073 498.593 761.958C475.576 759.845 453.526 752.204 434.565 739.774L347.153 682.402" stroke="black" stroke-width="4.21" stroke-miterlimit="10"/>
<path d="M607.6 482.099L601.058 478.027L802.134 602.908C839.851 626.336 835.001 679.659 793.637 696.743L566.022 790.79C544.853 799.533 521.645 803.016 498.628 800.902C475.612 798.787 453.562 791.148 434.6 778.718L323.462 704.407" stroke="black" stroke-width="4.21" stroke-miterlimit="10"/>
<path d="M776.858 651.13L567.654 737.58C548.2 745.613 526.871 748.813 505.718 746.869C484.565 744.925 464.301 737.905 446.875 726.482L366.709 673.607C377.747 665.666 390.115 659.502 403.306 655.37C436.352 644.832 468.602 632.21 499.834 617.588C523.543 606.577 544.369 590.786 560.825 571.343C577.281 551.9 588.96 529.285 595.028 505.114C599.222 488.388 602.905 471.472 605.92 454.466L790.038 568.73C824.693 590.256 814.861 635.444 776.858 651.13Z" fill="#F96900"/>
<path d="M237.791 901.676C237.791 901.676 274.471 887.4 281.502 876.637C281.502 876.637 282.825 901.072 275.961 909.418C269.097 917.765 228.078 939.828 225.874 937.064C223.669 934.301 237.791 901.676 237.791 901.676Z" fill="#F96900"/>
<path d="M124.877 959.901C124.877 959.901 131.55 968.404 155.229 959.901C178.908 951.398 230.426 920.083 230.426 920.083C230.426 920.083 216.054 956.31 210.846 960.293C205.638 964.276 107.251 1009.52 107.251 1009.52C107.251 1009.52 63.2655 1015.39 79.8421 986.026L124.877 959.901Z" fill="#F96900"/>
<path d="M266.475 486.553C212.252 506.367 154.872 552.921 171.377 681.841L175.965 715.338" stroke="black" stroke-width="4.21" stroke-miterlimit="10"/>
<path d="M266.391 402.362C275.258 390.48 283.266 377.636 288.176 363.808C293.086 349.979 293.336 334.998 294.706 320.454C298.353 281.452 304.002 249.197 320.03 212.869C333.913 181.43 375.849 140.93 417.571 137.092L421.325 136.79" stroke="black" stroke-width="4.21" stroke-miterlimit="10"/>
<path d="M371.261 483.699C371.059 483.151 370.856 482.636 370.642 482.099" stroke="black" stroke-width="4.21" stroke-miterlimit="10"/>
<path d="M350.919 410.63C348.869 399.319 347.344 388.354 346.152 377.949C346.156 377.754 346.132 377.558 346.081 377.367C339.836 319.268 346.152 276.999 346.152 276.999" stroke="black" stroke-width="4.21" stroke-miterlimit="10"/>
<path d="M496.676 58.0062L487.143 61.4974C487.143 61.7771 487.143 65.2678 486.738 70.157C486.294 75.9961 485.305 81.787 483.782 87.465C484.628 83.5939 485.856 74.3973 480.469 67.9977C480.386 67.8668 480.29 67.7426 480.183 67.6285C476.608 63.5896 472.199 65.1895 468.659 67.9642C466.215 69.9053 464.081 72.1664 462.319 74.677C462.937 67.2022 461.509 59.704 458.172 52.8932C455.996 48.2473 453.11 43.9242 449.604 40.0605C455.002 57.5139 448.079 68.9375 448.079 68.9375C429.786 72.9764 417.094 72.1149 407.632 70.5822C399.66 63.6008 402.424 38.4606 402.424 38.4606C394.404 44.614 396.335 68.4229 396.335 68.4229C395.311 62.2101 395.436 55.8775 396.704 49.7046C392.72 54.994 390.419 61.2368 390.067 67.7068L389.924 67.6397C389.371 67.5066 388.826 67.3455 388.291 67.1586C387.309 66.673 386.358 66.1349 385.443 65.5475L380.163 62.1911C388.136 24.0056 416.01 -0.00406538 459.078 7.04443C461.889 7.49934 464.656 8.17297 467.349 9.05829C495.723 22.9427 496.676 58.0062 496.676 58.0062Z" fill="#F96900"/>
<path d="M250.899 429.896L240.043 399.218C239.802 398.504 239.372 397.858 238.793 397.344C238.212 396.829 237.503 396.461 236.73 396.275C236.635 396.275 236.527 396.275 236.42 396.208C236.313 396.141 236.289 396.208 236.217 396.208C235.967 396.193 235.717 396.193 235.467 396.208C234.262 396.213 233.105 396.643 232.225 397.417C231.343 398.181 230.64 399.108 230.158 400.141C229.676 401.172 229.426 402.287 229.425 403.413C229.426 404.295 229.575 405.171 229.866 406.009C232.249 412.487 236.492 424.178 238.506 429.504" fill="#F96900"/>
<path d="M248.444 429.898L236.742 396.278C236.647 396.278 236.539 396.278 236.432 396.21C236.325 396.143 236.301 396.21 236.229 396.21L230.092 395.092C226.815 394.521 223.538 393.906 220.261 393.335C216.328 392.597 212.372 391.981 208.451 391.097C207.525 390.851 206.574 390.701 205.615 390.65C204.406 390.647 203.244 391.084 202.373 391.869C201.484 392.633 200.775 393.563 200.292 394.601C199.81 395.637 199.565 396.758 199.573 397.889C199.567 398.76 199.716 399.626 200.014 400.451C202.647 407.701 207.664 421.417 209.261 425.579L248.444 429.898Z" fill="#F96900"/>
<path d="M479.826 276.988C478.634 289.44 478.014 304.511 477.597 323.452C477.597 363.729 430.167 397.081 388.017 404.711L310.723 421.102C300.51 422.959 291.465 416.973 284.362 413.002C277.057 408.918 269.573 404.051 264.306 400.437C256.727 395.235 242.128 399.419 245.12 411.827C245.764 414.186 246.981 416.374 248.673 418.22C250.367 420.065 252.49 421.519 254.88 422.467C256.225 423.034 257.611 423.512 259.027 423.899C259.555 424.023 260.023 424.307 260.36 424.708C260.699 425.107 260.886 425.601 260.894 426.111C260.902 426.621 260.731 427.12 260.406 427.529C260.081 427.939 259.621 428.235 259.098 428.374C252.401 430.545 240.138 431.831 220.356 425.018C195.008 416.257 193.042 470.564 227.697 480.018H227.828C259.754 489.081 294.111 487.917 327.109 486.619C364.58 485.287 401.867 481.016 438.581 473.854C457.255 470.139 476.441 466.279 493.53 458.347C522.965 444.686 544.178 429.023 564.353 404.644C586.996 377.312 596.66 341.454 602.118 307.834C608.363 269.369 599.735 236.89 577.772 203.784L576.961 202.576" stroke="black" stroke-width="4.21" stroke-miterlimit="10"/>
<path d="M250.899 429.896L240.043 399.218C239.802 398.504 239.372 397.858 238.793 397.344C238.212 396.829 237.503 396.461 236.73 396.275C236.635 396.275 236.527 396.275 236.42 396.208C236.313 396.141 236.289 396.208 236.217 396.208C235.967 396.193 235.717 396.193 235.467 396.208C234.262 396.213 233.105 396.643 232.225 397.417C231.343 398.181 230.64 399.108 230.158 400.141C229.676 401.172 229.426 402.287 229.425 403.413C229.426 404.295 229.575 405.171 229.866 406.009C232.249 412.487 236.492 424.178 238.506 429.504" stroke="black" stroke-width="4.21" stroke-miterlimit="10"/>
<path d="M236.742 396.278C236.647 396.278 236.539 396.278 236.432 396.21C236.325 396.143 236.301 396.21 236.229 396.21L230.092 395.092C226.815 394.521 223.538 393.906 220.261 393.335C216.328 392.597 212.372 391.981 208.451 391.097C207.525 390.851 206.574 390.701 205.615 390.65C204.406 390.647 203.244 391.084 202.373 391.869C201.484 392.633 200.775 393.563 200.292 394.601C199.81 395.637 199.565 396.758 199.573 397.889C199.567 398.76 199.716 399.626 200.014 400.451C202.647 407.701 207.664 421.417 209.261 425.579" stroke="black" stroke-width="4.21" stroke-miterlimit="10"/>
<path d="M386.36 66.6059C386.36 81.1504 389.375 95.0573 396.812 107.901C402.77 118.217 411.517 128.61 424.03 132.023C426.803 132.773 429.676 133.15 432.563 133.142C453.799 133.052 457.112 109.434 457.112 109.434" stroke="black" stroke-width="4.21" stroke-miterlimit="10"/>
<path d="M486.022 75.0451V75.1122C485.038 82.3286 483.347 89.4453 480.97 96.3696C478.13 104.63 477.459 113.412 479.015 121.968L482.316 139.992C482.466 140.795 482.855 141.543 483.437 142.148C484.018 142.753 484.77 143.193 485.605 143.416C527.506 154.839 564.699 180.045 586.34 216.44C613.332 261.886 618.254 316.618 616.073 367.636C614.155 411.863 606.54 455.832 595.731 498.872C589.124 525.178 576.411 549.789 558.502 570.949C540.592 592.11 517.927 609.296 492.124 621.281C458.17 637.199 423.105 650.935 387.171 662.398C368.149 668.312 350.769 678.131 336.296 691.143C321.822 704.154 310.619 720.03 303.501 737.615L219.057 948.421C215.954 956.204 209.833 962.598 201.92 966.322L121.004 1004.48C110.786 1009.29 99.1298 1010.68 87.9576 1008.42C85.0618 1007.84 82.4198 1006.44 80.3784 1004.43C78.3358 1002.41 76.988 999.865 76.5101 997.12C76.031 994.374 76.4446 991.557 77.6958 989.035C78.9471 986.513 80.9778 984.404 83.5245 982.981L124.853 959.9L181.685 687.895C185.685 663.628 195.235 640.463 209.678 619.99C224.121 599.518 243.115 582.226 265.355 569.301C268.32 567.604 271.41 566.109 274.602 564.826L397.801 514.603" stroke="black" stroke-width="4.21" stroke-miterlimit="10"/>
<path d="M452.154 4.41512C445.568 2.94142 438.75 2.61529 432.038 3.45294C431.763 3.45865 431.489 3.48114 431.216 3.52007" stroke="black" stroke-width="4.21" stroke-miterlimit="10"/>
<path d="M422.314 137.449C422.314 137.449 400.518 184.361 439.498 186.677C474.475 188.78 487.31 144.162 487.31 144.162" stroke="black" stroke-width="4.21" stroke-miterlimit="10"/>
<path d="M483.282 89.1723C483.532 88.3108 487.286 75.59 480.112 67.5793C472.938 59.5686 463.213 73.3076 462.236 74.6837C464.143 54.9597 449.544 40.0012 449.544 40.0012C454.931 57.4658 447.995 68.8771 447.995 68.8771C421.337 74.7397 406.667 70.2756 396.263 68.3513C395.24 62.1419 395.37 55.8134 396.645 49.6453C392.65 54.9211 390.347 61.1596 390.007 67.624H389.84C385.88 66.6361 382.125 65.0284 378.733 62.8691L373.454 59.5127C381.439 21.3395 409.301 -2.69256 452.369 4.35594C495.437 11.4044 496.641 57.9021 496.641 57.9021L487.047 61.4035C487.047 61.4035 487.131 76.7535 483.282 89.1723Z" stroke="black" stroke-width="4.21" stroke-miterlimit="10"/>
<path d="M403.068 87.1819V105.743C403.069 105.969 403.128 106.192 403.238 106.392C403.348 106.593 403.506 106.767 403.702 106.9C403.896 107.033 404.121 107.12 404.36 107.157C404.597 107.193 404.84 107.176 405.07 107.108C406.625 106.625 408.054 105.839 409.265 104.803" stroke="black" stroke-width="4.21" stroke-miterlimit="10"/>
<path d="M391.245 101.273C397.481 98.991 399.797 90.5417 396.416 82.4013C393.035 74.2608 385.239 69.5126 379.003 71.795C372.767 74.0773 370.452 82.5266 373.832 90.667C377.213 98.8075 385.009 103.556 391.245 101.273Z" stroke="black" stroke-width="4.21" stroke-miterlimit="10"/>
<path d="M428.772 106.583C435.008 104.301 437.324 95.8516 433.943 87.7111C430.562 79.5707 422.767 74.8225 416.531 77.1048C410.293 79.3872 407.979 87.8365 411.36 95.9769C414.74 104.117 422.536 108.866 428.772 106.583Z" stroke="black" stroke-width="4.21" stroke-miterlimit="10"/>
<path d="M397.825 88.1441C397.825 88.1441 401.519 84.1835 409.265 88.8266" stroke="black" stroke-width="4.21" stroke-miterlimit="10"/>
<path d="M420.562 130.85C420.562 130.85 423.244 139.376 431.133 167.01" stroke="black" stroke-width="4.21" stroke-miterlimit="10"/>
<path d="M223.049 938.462L269.526 914.911C272.189 913.556 274.459 911.609 276.14 909.243C277.82 906.875 278.859 904.159 279.167 901.328C286.889 830.116 284.529 785.096 284.529 785.096" stroke="black" stroke-width="4.21" stroke-miterlimit="10"/>
<path d="M180.863 573.26L2 455.908" stroke="black" stroke-width="4.21" stroke-miterlimit="10"/>
<path d="M170.733 605.596L2 494.878" stroke="black" stroke-width="4.21" stroke-miterlimit="10"/>
<path d="M854.926 382.54V478.612C854.926 483.017 853.563 487.327 851.003 491.019C848.444 494.712 844.797 497.627 840.507 499.411L713.59 552.174L674.789 607.532C673.79 608.905 672.353 609.943 670.683 610.498C669.015 611.053 667.2 611.095 665.504 610.618C663.808 610.14 662.318 609.169 661.25 607.844C660.181 606.519 659.588 604.909 659.558 603.247V574.65L646.545 580.054C643.65 581.243 640.486 581.737 637.338 581.493C634.191 581.249 631.155 580.275 628.507 578.657C625.86 577.04 623.681 574.831 622.168 572.227C620.655 569.624 619.855 566.707 619.839 563.742V483.512C619.84 473.506 622.959 463.717 628.809 455.353C634.659 446.988 642.985 440.411 652.766 436.433L827.184 365.444C830.203 364.214 833.502 363.707 836.782 363.972C840.061 364.236 843.22 365.262 845.972 366.958C848.724 368.654 850.983 370.967 852.547 373.687C854.11 376.406 854.928 379.448 854.926 382.54Z" fill="#D7E8F0"/>
<path d="M699.239 508.108C705.49 496.786 703.798 484.318 695.46 480.26C687.121 476.202 675.294 482.091 669.042 493.414C662.791 504.737 664.483 517.205 672.821 521.263C681.159 525.321 692.987 519.432 699.239 508.108Z" fill="white"/>
<path d="M753.442 486.327C759.693 475.004 758.002 462.536 749.663 458.478C741.325 454.42 729.497 460.309 723.245 471.632C716.994 482.955 718.686 495.423 727.024 499.481C735.363 503.539 747.19 497.65 753.442 486.327Z" fill="white"/>
<path d="M805.821 462.805C812.073 451.483 810.382 439.014 802.043 434.957C793.705 430.899 781.877 436.789 775.626 448.111C769.374 459.433 771.066 471.902 779.405 475.96C787.742 480.017 799.569 474.128 805.821 462.805Z" fill="white"/>
</svg>
